<svg width="136" height="22" viewBox="0 0 136 22" fill="none" xmlns="http://www.w3.org/2000/svg">
<g clip-path="url(#clip0_1_9)">
<path d="M25.3479 2.07227L30.9247 19.2221C31.345 20.5144 30.3817 21.8406 29.0227 21.8406H25.4501C24.143 21.8406 22.9864 20.9943 22.5908 19.7485L17.313 3.12631C16.8216 1.57872 17.9767 0 19.6004 0H22.4949C23.7943 0 24.946 0.836549 25.3479 2.07227Z" fill="#0094FF"/>
<path d="M18.4585 14.5335L14.4 1.53388C14.1152 0.621383 13.2702 0 12.3143 0C11.3835 0 10.6159 0.729443 10.5685 1.65907L10.0856 11.1365C10.0391 12.0484 10.1491 12.9616 10.4108 13.8364L12.3784 20.4138C12.6317 21.2605 13.4107 21.8406 14.2945 21.8406H15.8075C16.678 21.8406 17.4485 21.2775 17.713 20.4481L18.4476 18.1442C18.8218 16.9703 18.8257 15.7096 18.4585 14.5335Z" fill="black"/>
<path d="M9.14023 0H12.2457C13.864 0 15.0184 1.56893 14.537 3.11397L9.30895 19.8925C8.91833 21.1461 7.75784 22 6.44477 22H2.91162C1.56816 22 0.606758 20.7018 0.998564 19.4167L6.27065 2.12509C6.65557 0.862609 7.82038 0 9.14023 0Z" fill="#0094FF"/>
<path d="M38.8 19V7.48H41.264V19H38.8ZM39.952 19V17.112H46.8V19H39.952ZM47.9756 19V10.84H50.3756V19H47.9756ZM47.8956 9.752V7.16H50.4556V9.752H47.8956ZM54.3715 19L51.1555 10.84H53.7315L56.2435 18.456H54.8995L57.3955 10.84H59.9075L56.6915 19H54.3715ZM60.835 19V10.84H63.187V12.76H63.235V19H60.835ZM63.235 14.744L63.027 12.808C63.219 12.1147 63.5337 11.5867 63.971 11.224C64.4083 10.8613 64.9523 10.68 65.603 10.68C65.8057 10.68 65.955 10.7013 66.051 10.744V12.984C65.9977 12.9627 65.923 12.952 65.827 12.952C65.731 12.9413 65.6137 12.936 65.475 12.936C64.707 12.936 64.1417 13.0747 63.779 13.352C63.4163 13.6187 63.235 14.0827 63.235 14.744ZM67.05 19V7.48H69.514V19H67.05ZM68.202 19V17.112H75.626V19H68.202ZM68.202 14.04V12.184H75.066V14.04H68.202ZM68.202 9.368V7.48H75.434V9.368H68.202ZM82.5611 19L80.1451 15.416L76.6731 10.84H79.3611L81.5211 14.056L85.2491 19H82.5611ZM80.3371 13.928L82.4971 10.84H85.1211L81.4731 15.608L80.3371 13.928ZM81.2651 15.736L78.9451 19H76.3371L80.1291 14.056L81.2651 15.736ZM91.5766 19.16C90.798 19.16 90.174 18.9787 89.7046 18.616C89.2353 18.2533 88.958 17.7573 88.8726 17.128L89.0006 17.112V22.28H86.6006V10.84H88.9526V12.648L88.8086 12.616C88.926 12.0187 89.246 11.5493 89.7686 11.208C90.2913 10.856 90.9366 10.68 91.7046 10.68C92.4406 10.68 93.0753 10.856 93.6086 11.208C94.1526 11.5493 94.5686 12.0347 94.8566 12.664C95.1553 13.2933 95.3046 14.0347 95.3046 14.888C95.3046 15.752 95.15 16.504 94.8406 17.144C94.5313 17.784 94.0993 18.28 93.5446 18.632C92.99 18.984 92.334 19.16 91.5766 19.16ZM90.9046 17.24C91.47 17.24 91.9286 17.0373 92.2806 16.632C92.6326 16.2267 92.8086 15.6507 92.8086 14.904C92.8086 14.1573 92.6273 13.5867 92.2646 13.192C91.9126 12.7973 91.4486 12.6 90.8726 12.6C90.318 12.6 89.8593 12.8027 89.4966 13.208C89.1446 13.6027 88.9686 14.1733 88.9686 14.92C88.9686 15.6667 89.1446 16.2427 89.4966 16.648C89.8593 17.0427 90.3286 17.24 90.9046 17.24ZM96.6475 19V10.84H98.9995V12.76H99.0475V19H96.6475ZM99.0475 14.744L98.8395 12.808C99.0315 12.1147 99.3462 11.5867 99.7835 11.224C100.221 10.8613 100.765 10.68 101.416 10.68C101.618 10.68 101.768 10.7013 101.864 10.744V12.984C101.81 12.9627 101.736 12.952 101.64 12.952C101.544 12.9413 101.426 12.936 101.288 12.936C100.52 12.936 99.9542 13.0747 99.5915 13.352C99.2288 13.6187 99.0475 14.0827 99.0475 14.744ZM106.738 19.16C105.831 19.16 105.042 18.984 104.37 18.632C103.698 18.2693 103.175 17.768 102.802 17.128C102.439 16.488 102.258 15.752 102.258 14.92C102.258 14.0773 102.439 13.3413 102.802 12.712C103.175 12.072 103.692 11.576 104.354 11.224C105.015 10.8613 105.783 10.68 106.658 10.68C107.5 10.68 108.231 10.8507 108.85 11.192C109.468 11.5333 109.948 12.008 110.29 12.616C110.631 13.224 110.802 13.9387 110.802 14.76C110.802 14.9307 110.796 15.0907 110.786 15.24C110.775 15.3787 110.759 15.512 110.738 15.64H103.666V14.056H108.802L108.386 14.344C108.386 13.6827 108.226 13.1973 107.906 12.888C107.596 12.568 107.17 12.408 106.626 12.408C105.996 12.408 105.506 12.6213 105.154 13.048C104.812 13.4747 104.642 14.1147 104.642 14.968C104.642 15.8 104.812 16.4187 105.154 16.824C105.506 17.2293 106.028 17.432 106.722 17.432C107.106 17.432 107.436 17.368 107.714 17.24C107.991 17.112 108.199 16.904 108.338 16.616H110.594C110.327 17.4053 109.868 18.0293 109.218 18.488C108.578 18.936 107.751 19.16 106.738 19.16ZM115.459 19.16C114.264 19.16 113.315 18.92 112.611 18.44C111.907 17.96 111.523 17.2987 111.459 16.456H113.603C113.656 16.8187 113.838 17.096 114.147 17.288C114.467 17.4693 114.904 17.56 115.459 17.56C115.96 17.56 116.323 17.4907 116.547 17.352C116.782 17.2027 116.899 16.9947 116.899 16.728C116.899 16.5253 116.83 16.3707 116.691 16.264C116.563 16.1467 116.323 16.0507 115.971 15.976L114.659 15.704C113.688 15.5013 112.974 15.1973 112.515 14.792C112.056 14.376 111.827 13.8427 111.827 13.192C111.827 12.4027 112.131 11.7893 112.739 11.352C113.347 10.904 114.195 10.68 115.283 10.68C116.36 10.68 117.219 10.8987 117.859 11.336C118.499 11.7627 118.851 12.36 118.915 13.128H116.771C116.728 12.8507 116.579 12.6427 116.323 12.504C116.067 12.3547 115.704 12.28 115.235 12.28C114.808 12.28 114.488 12.344 114.275 12.472C114.072 12.5893 113.971 12.76 113.971 12.984C113.971 13.176 114.056 13.3307 114.227 13.448C114.398 13.5547 114.68 13.6507 115.075 13.736L116.547 14.04C117.368 14.2107 117.987 14.5307 118.403 15C118.83 15.4587 119.043 16.0027 119.043 16.632C119.043 17.432 118.728 18.056 118.099 18.504C117.48 18.9413 116.6 19.16 115.459 19.16ZM123.647 19.16C122.452 19.16 121.503 18.92 120.799 18.44C120.095 17.96 119.711 17.2987 119.647 16.456H121.791C121.844 16.8187 122.025 17.096 122.335 17.288C122.655 17.4693 123.092 17.56 123.647 17.56C124.148 17.56 124.511 17.4907 124.735 17.352C124.969 17.2027 125.087 16.9947 125.087 16.728C125.087 16.5253 125.017 16.3707 124.879 16.264C124.751 16.1467 124.511 16.0507 124.159 15.976L122.847 15.704C121.876 15.5013 121.161 15.1973 120.703 14.792C120.244 14.376 120.015 13.8427 120.015 13.192C120.015 12.4027 120.319 11.7893 120.927 11.352C121.535 10.904 122.383 10.68 123.471 10.68C124.548 10.68 125.407 10.8987 126.047 11.336C126.687 11.7627 127.039 12.36 127.103 13.128H124.959C124.916 12.8507 124.767 12.6427 124.511 12.504C124.255 12.3547 123.892 12.28 123.423 12.28C122.996 12.28 122.676 12.344 122.463 12.472C122.26 12.5893 122.159 12.76 122.159 12.984C122.159 13.176 122.244 13.3307 122.415 13.448C122.585 13.5547 122.868 13.6507 123.263 13.736L124.735 14.04C125.556 14.2107 126.175 14.5307 126.591 15C127.017 15.4587 127.231 16.0027 127.231 16.632C127.231 17.432 126.916 18.056 126.287 18.504C125.668 18.9413 124.788 19.16 123.647 19.16Z" fill="black"/>
</g>
<defs>
<clipPath id="clip0_1_9">
<rect width="136" height="22" fill="white"/>
</clipPath>
</defs>
</svg>
